<?xml version="1.0" standalone="no"?>
<!DOCTYPE svg PUBLIC "-//W3C//DTD SVG 20010904//EN"
 "http://www.w3.org/TR/2001/REC-SVG-20010904/DTD/svg10.dtd">
<svg version="1.0" xmlns="http://www.w3.org/2000/svg"
 width="512.000000pt" height="512.000000pt" viewBox="0 0 512.000000 512.000000"
 preserveAspectRatio="xMidYMid meet">

<g transform="translate(0.000000,512.000000) scale(0.100000,-0.100000)"
fill="#000000" stroke="none">
<path d="M2360 4929 c-717 -59 -1387 -459 -1790 -1071 -76 -116 -186 -332
-233 -459 -236 -634 -199 -1311 104 -1909 302 -598 839 -1038 1485 -1220 812
-228 1695 1 2297 598 677 669 892 1641 560 2531 -48 131 -158 345 -238 466
-485 730 -1316 1135 -2185 1064z m585 -118 c726 -130 1333 -582 1660 -1238
106 -214 170 -413 212 -661 25 -150 25 -562 0 -707 -69 -396 -211 -722 -450
-1040 -84 -110 -312 -337 -427 -423 -317 -236 -638 -373 -1028 -439 -150 -25
-562 -25 -707 0 -505 89 -902 292 -1256 646 -353 353 -562 759 -646 1259 -28
168 -25 563 5 735 68 380 208 698 445 1012 78 103 309 334 412 411 162 122
301 205 462 278 217 98 396 145 708 190 17 2 134 3 260 1 182 -2 255 -7 350
-24z"/>
<path d="M2513 4769 c-6 -6 -28 -80 -49 -164 l-38 -153 -65 -7 c-203 -21 -438
-88 -625 -179 -381 -185 -698 -502 -881 -881 -92 -191 -143 -358 -173 -577
l-18 -123 -150 -36 c-83 -19 -156 -39 -162 -43 -19 -11 -15 -64 6 -74 9 -6 53
-19 97 -31 44 -12 110 -31 146 -42 l66 -19 7 -73 c76 -782 659 -1454 1428
-1646 48 -12 142 -30 209 -40 l123 -17 42 -151 c23 -84 45 -156 49 -162 10
-18 63 -13 73 7 5 9 26 83 47 163 l38 147 71 7 c725 70 1361 578 1601 1279 41
121 81 301 90 414 l7 78 132 34 c183 46 196 52 196 89 0 16 -5 33 -12 37 -7 4
-80 24 -163 45 l-150 37 -17 119 c-62 440 -248 807 -565 1113 -133 128 -233
204 -392 295 -203 115 -474 202 -707 227 l-113 12 -37 151 c-20 82 -41 156
-47 163 -12 15 -49 16 -64 1z m227 -1009 c106 -423 197 -776 204 -784 7 -9
306 -87 786 -205 426 -105 783 -194 793 -198 11 -5 -256 -80 -755 -211 -425
-112 -778 -208 -785 -215 -6 -7 -98 -340 -203 -742 -105 -401 -198 -755 -207
-785 l-15 -55 -215 775 c-118 426 -219 779 -223 784 -10 10 -193 63 -997 287
-304 84 -551 154 -550 155 1 2 353 88 782 193 429 105 786 197 793 205 11 10
239 920 387 1544 3 12 7 22 9 22 2 0 90 -346 196 -770z m-460 90 c-67 -272
-123 -503 -126 -512 -4 -14 -22 -7 -107 46 -621 381 -659 400 -665 331 -2 -23
44 -111 202 -390 112 -198 203 -361 202 -362 -3 -4 -1020 -252 -1022 -250 -1
1 4 46 12 99 92 661 559 1229 1189 1449 149 51 424 108 433 89 1 -3 -52 -228
-118 -500z m565 489 c102 -15 277 -63 377 -103 232 -94 405 -206 587 -381 249
-240 414 -524 501 -864 24 -93 50 -270 41 -275 -7 -3 -1030 250 -1037 257 -3
2 92 167 211 365 118 199 215 367 215 375 0 22 -37 50 -56 43 -9 -3 -176 -103
-371 -222 -195 -119 -358 -212 -362 -208 -7 8 -262 1010 -261 1027 0 7 18 6
155 -14z m1511 -1941 c-3 -13 -8 -48 -11 -78 -31 -281 -169 -614 -352 -853
-69 -90 -216 -239 -308 -314 -253 -204 -585 -343 -907 -381 -38 -5 -68 -7 -68
-5 0 13 264 1009 269 1015 4 4 164 -85 356 -197 273 -160 357 -204 380 -203
64 6 52 32 -175 409 -117 193 -209 353 -206 356 5 5 996 270 1019 272 4 1 5
-9 3 -21z m-3088 -125 c395 -110 492 -141 489 -153 -2 -8 -90 -168 -196 -354
-201 -356 -210 -378 -157 -392 18 -4 85 31 292 152 356 209 424 247 429 243 3
-4 254 -903 270 -972 7 -26 6 -27 -30 -27 -55 0 -268 45 -360 76 -610 205
-1054 688 -1200 1309 -13 55 -27 127 -30 160 -4 33 -9 68 -11 78 -3 9 -2 17 3
17 4 0 230 -61 501 -137z"/>
<path d="M2465 2847 c-68 -23 -100 -44 -151 -100 -124 -135 -115 -341 20 -465
71 -65 125 -85 226 -85 101 0 155 20 226 85 140 129 143 347 6 481 -26 25 -69
56 -97 68 -61 27 -173 35 -230 16z"/>
<path d="M3958 4139 c-38 -22 -22 -61 58 -139 142 -140 279 -328 364 -500 24
-47 49 -93 58 -102 21 -25 49 -22 67 6 15 23 14 29 -30 117 -113 223 -299 473
-443 593 -48 40 -49 40 -74 25z"/>
</g>
</svg>
